<?xml version="1.0" encoding="UTF-8"?>
<svg width="155px" height="143px" viewBox="0 0 155 143" version="1.1" xmlns="http://www.w3.org/2000/svg" xmlns:xlink="http://www.w3.org/1999/xlink">
    <!-- Generator: Sketch 55.2 (78181) - https://sketchapp.com -->
    <title>farm_small</title>
    <desc>Created with Sketch.</desc>
    <g id="farm_small" stroke="none" stroke-width="1" fill="none" fill-rule="evenodd">
        <path d="M42.5,70.8071399 C53,61.9762823 92.5,64.6255396 104,69.4825113 C111.666667,72.7204924 117.333333,80.3739023 121,92.4427411 L121,126 L28,126 L28,92.4427411 C30.6666667,83.9062454 35.5,76.6943783 42.5,70.8071399 Z" id="background" fill="#FFFFFF"></path>
        <path d="M121.793388,127.91954 C122.694215,127.91954 123.144628,127.468811 123.144628,126.567354 L118.640496,123.412251 L93.6706259,123.409582 L93.6706259,98.5310256 L117.891125,98.5310256 L118.805293,98.5310256 L118.640496,123.412251 L123.144628,126.567354 L123.287141,98.5310256 L123.287141,98.4767541 L123.314108,98.4767541 L123.287141,98.5310256 L128.100679,98.5310256 C128.791024,98.5310256 129.22159,97.7820794 128.880912,97.1869024 L126.254366,92.4969435 L118.50057,78.4523937 C115.067722,72.2283615 109.581817,67.2769952 103.046912,64.5163868 C99.1205753,62.8475393 94.961427,62 90.721379,62 L58.6841622,62 C58.6122513,62 58.5412392,62.0180905 58.4693283,62.0271357 C54.382091,62.0271357 50.3029437,62.8122629 46.4934623,64.3725674 L46.1168288,64.525432 C39.4390004,67.2679499 33.8362403,72.2645425 30.3404703,78.6061628 L22.8284751,92.216541 L22.6765633,92.496039 C22.6765633,92.5050842 22.6675744,92.5050842 22.6675744,92.5141295 L20.1129388,97.1959476 C19.7812496,97.7911246 20.2208051,98.5310256 20.9021612,98.5310256 L25.70671,98.5310256 L25.6887323,98.4857993 C25.6977211,98.4857993 25.6977211,98.4857993 25.70671,98.4857993 L25.70671,98.5310256 L25.70671,125.664561 C25.70671,126.909187 26.7107663,127.91954 27.9476342,127.91954 L90.5514895,127.91954 L91.4297017,127.91954 C111.67216,127.91954 121.793388,127.91954 121.793388,127.91954 Z M30.1876596,95.6085073 L30.8150825,94.4724247 L37.3949323,82.5471755 C40.0035011,77.8210357 44.1806271,74.0862546 49.1649532,72.0483612 L49.5325979,71.894592 C55.3322141,69.5138839 61.9740871,69.5500649 67.7476356,71.9940897 C72.6151065,74.0600234 76.7113327,77.7486737 79.2749572,82.3943109 L85.9348079,94.4724247 L87.0287529,96.4388607 C87.0647084,96.5021774 87.1096527,96.5654941 87.1456082,96.6288108 C87.1815636,96.6921275 87.2175191,96.746399 87.2624634,96.8088112 C87.3972964,96.9978568 87.5402194,97.1787616 87.702019,97.3406715 C87.8629197,97.5034859 88.042697,97.6473053 88.2305643,97.7829839 C88.2844975,97.8191649 88.3294418,97.8463006 88.3743861,97.8824816 C88.5532646,97.9910245 88.7330419,98.0896177 88.9209092,98.1800701 C88.9478758,98.1891154 88.9748424,98.2072058 89.001809,98.2162511 C89.064731,98.2433868 89.1276531,98.2705225 89.1896763,98.288613 L89.1896763,123.410486 L72.9926389,123.410486 L72.9926389,101.296675 C72.9926389,100.051145 71.9894814,99.0416953 70.7517146,99.0416953 L46.0008725,99.0416953 C44.7631056,99.0416953 43.7599482,100.051145 43.7599482,101.296675 L43.7599482,123.409582 L30.1876596,123.409582 L30.1876596,95.6085073 Z M48,103.4 L56,103.4 L56,123.4 L48,123.4 L48,103.4 Z M60.49,103.4 L68.49,103.4 L68.49,123.4 L60.49,123.4 L60.49,103.4 Z" id="Shape" fill="#000000" fill-rule="nonzero"></path>
    </g>
</svg>