<?xml version="1.0" encoding="UTF-8"?>
<svg width="155px" height="143px" viewBox="0 0 155 143" version="1.1" xmlns="http://www.w3.org/2000/svg" xmlns:xlink="http://www.w3.org/1999/xlink">
    <!-- Generator: Sketch 54.1 (76490) - https://sketchapp.com -->
    <title>farm_small</title>
    <desc>Created with Sketch.</desc>
    <g id="farm_small" stroke="none" stroke-width="1" fill="none" fill-rule="evenodd">
        <path d="M124.793388,134.91954 C125.694215,134.91954 126.144628,134.468811 126.144628,133.567354 L121.640496,130.412251 L96.6706259,130.409582 L96.6706259,97.5310256 L120.891125,97.5310256 L121.805293,97.5310256 L121.640496,130.412251 L126.144628,133.567354 L126.287141,97.5310256 L126.287141,97.4767541 L126.314108,97.4767541 L126.287141,97.5310256 L131.100679,97.5310256 C131.791024,97.5310256 132.22159,96.7820794 131.880912,96.1869024 L129.254366,91.4969435 L121.50057,77.4523937 C118.067722,71.2283615 112.581817,66.2769952 106.046912,63.5163868 C102.120575,61.8475393 97.961427,61 93.721379,61 L61.6841622,61 C61.6122513,61 61.5412392,61.0180905 61.4693283,61.0271357 C57.382091,61.0271357 53.3029437,61.8122629 49.4934623,63.3725674 L49.1168288,63.525432 C42.4390004,66.2679499 36.8362403,71.2645425 33.3404703,77.6061628 L25.8284751,91.216541 L25.6765633,91.496039 C25.6765633,91.5050842 25.6675744,91.5050842 25.6675744,91.5141295 L23.1129388,96.1959476 C22.7812496,96.7911246 23.2208051,97.5310256 23.9021612,97.5310256 L28.70671,97.5310256 L28.6887323,97.4857993 C28.6977211,97.4857993 28.6977211,97.4857993 28.70671,97.4857993 L28.70671,97.5310256 L28.70671,132.664561 C28.70671,133.909187 29.7107663,134.91954 30.9476342,134.91954 L93.5514895,134.91954 L94.4297017,134.91954 C114.67216,134.91954 124.793388,134.91954 124.793388,134.91954 Z M33.1876596,94.6085073 L33.8150825,93.4724247 L40.3949323,81.5471755 C43.0035011,76.8210357 47.1806271,73.0862546 52.1649532,71.0483612 L52.5325979,70.894592 C58.3322141,68.5138839 64.9740871,68.5500649 70.7476356,70.9940897 C75.6151065,73.0600234 79.7113327,76.7486737 82.2749572,81.3943109 L88.9348079,93.4724247 L90.0287529,95.4388607 C90.0647084,95.5021774 90.1096527,95.5654941 90.1456082,95.6288108 C90.1815636,95.6921275 90.2175191,95.746399 90.2624634,95.8088112 C90.3972964,95.9978568 90.5402194,96.1787616 90.702019,96.3406715 C90.8629197,96.5034859 91.042697,96.6473053 91.2305643,96.7829839 C91.2844975,96.8191649 91.3294418,96.8463006 91.3743861,96.8824816 C91.5532646,96.9910245 91.7330419,97.0896177 91.9209092,97.1800701 C91.9478758,97.1891154 91.9748424,97.2072058 92.001809,97.2162511 C92.064731,97.2433868 92.1276531,97.2705225 92.1896763,97.288613 L92.1896763,130.410486 L75.9926389,130.410486 L75.9926389,108.296675 C75.9926389,107.051145 74.9894814,106.041695 73.7517146,106.041695 L49.0008725,106.041695 C47.7631056,106.041695 46.7599482,107.051145 46.7599482,108.296675 L46.7599482,130.409582 L33.1876596,130.409582 L33.1876596,94.6085073 Z M71.5098915,127.205756 L55.0162215,110.552558 L71.5098915,110.552558 L71.5098915,127.205756 Z M68.3539007,130.407773 L51.2417967,130.407773 L51.2417967,113.129548 L68.3539007,130.407773 Z" id="Shape" fill="#000000" fill-rule="nonzero"></path>
    </g>
</svg>