<?xml version="1.0" encoding="UTF-8"?>
<svg width="155px" height="143px" viewBox="0 0 155 143" version="1.1" xmlns="http://www.w3.org/2000/svg" xmlns:xlink="http://www.w3.org/1999/xlink">
    <!-- Generator: Sketch 55.2 (78181) - https://sketchapp.com -->
    <title>farm_large</title>
    <desc>Created with Sketch.</desc>
    <g id="farm_large" stroke="none" stroke-width="1" fill="none" fill-rule="evenodd">
        <path d="M122,11 L125,11 L125,72.5 L131,79.5 L131,103.177222 C139.480735,104.390296 146,111.68382 146,120.5 C146,130.164983 138.164983,138 128.5,138 C120.705515,138 114.101218,132.904197 111.836857,125.862338 C68.3923718,125.498155 41.1134195,124.877375 30,124 C17.3333333,123 9,119 5,112 L5,11 C5,7.13400675 16.6405965,4 31,4 C45.3594035,4 57,7.13400675 57,11 L70,11 C70,7.13400675 81.6405965,4 96,4 C110.359403,4 122,7.13400675 122,11 Z" id="background" fill="#FFFFFF"></path>
        <path d="M104.072541,128 L91.4297017,128 L90.5514895,128 L27.9476342,128 C26.7107663,128 25.70671,126.988547 25.70671,125.742566 L25.70671,85.5707888 L25.70671,85.5255133 C25.6977211,85.5255133 25.6977211,85.5255133 25.6887323,85.5255133 L25.70671,85.5707888 L20.9021612,85.5707888 C20.2208051,85.5707888 19.7812496,84.8300825 20.1129388,84.2342576 L22.6675744,79.5473434 C22.6675744,79.5382883 22.6765633,79.5382883 22.6765633,79.5292333 L22.8284751,79.249431 L30.3404703,65.6242383 C33.8362403,59.2757152 39.4390004,54.273684 46.1168288,51.5281809 L46.4934623,51.3751499 C50.3029437,49.813147 54.382091,49.0271653 58.4693283,49.0271653 C58.5412392,49.0181102 58.6122513,49 58.6841622,49 L100.721379,48 C104.961427,48 109.120575,48.8484619 113.046912,50.5191258 C119.581817,53.282739 125.067722,58.2394949 128.50057,64.4703018 L136.254366,78.5301388 L138.880912,83.2252025 C139.22159,83.8210274 138.791024,84.5707888 138.100679,84.5707888 L133.287141,84.5164582 L133.29,96.8 C131,96.4 131,96.5 128.805293,96.2443895 L128.805293,84.5707888 L93.6706259,85.5707888 L93.6706259,123.485133 L103.124216,123.485133 C103.304892,125.036269 103.6213,126.547564 104.072541,128 Z M30.1876596,82.6450894 L30.1876596,123.485133 L43.7599482,123.485133 L43.7599482,101.348156 C43.7599482,100.10127 44.7631056,99.0907222 46.0008725,99.0907222 L70.7517146,99.0907222 C71.9894814,99.0907222 72.9926389,100.10127 72.9926389,101.348156 L72.9926389,123.486038 L89.1896763,123.486038 L89.1896763,85.3281124 C89.1276531,85.3100022 89.064731,85.2828369 89.001809,85.2556717 C88.9748424,85.2466166 88.9478758,85.2285064 88.9209092,85.2194513 C88.7330419,85.1289004 88.5532646,85.0301999 88.3743861,84.9215389 C88.3294418,84.8853185 88.2844975,84.8581533 88.2305643,84.8219329 C88.042697,84.6861066 87.8629197,84.5421306 87.702019,84.379139 C87.5402194,84.2170529 87.3972964,84.0359512 87.2624634,83.8466998 C87.2175191,83.7842197 87.1815636,83.7298891 87.1456082,83.6665035 C87.1096527,83.6031179 87.0647084,83.5397323 87.0287529,83.4763466 L85.9348079,81.5077702 L79.2749572,69.4165096 C76.7113327,64.7658158 72.6151065,61.0731504 67.7476356,59.0049681 C61.9740871,56.558283 55.3322141,56.5220626 49.5325979,58.9053621 L49.1649532,59.0592986 C44.1806271,61.0994102 40.0035011,64.8382565 37.3949323,69.5695406 L30.8150825,81.5077702 L30.1876596,82.6450894 Z M60.49,103.5 L60.49,123.5 L68.49,123.5 L68.49,103.5 L60.49,103.5 Z M48.2,103.5 L48.2,123.5 L56.2,123.5 L56.2,103.5 L48.2,103.5 Z M63.3946875,88.5 C62.3475738,88.5 61.4990506,87.6759069 61.5,86.6598637 L61.5,77.3401363 C61.5,76.3240931 62.348524,75.5 63.3946875,75.5 L71.6053133,75.5 C72.6514768,75.5 73.5,76.3240931 73.5,77.3401363 L73.5,86.6598637 C73.5,87.6759069 72.652427,88.5 71.6053133,88.5 L63.3946875,88.5 Z M44.3946875,88.5 C43.3475738,88.5 42.4990506,87.6759069 42.5,86.6598637 L42.5,77.3401363 C42.5,76.3240931 43.348524,75.5 44.3946875,75.5 L52.6053133,75.5 C53.6514768,75.5 54.5,76.3240931 54.5,77.3401363 L54.5,86.6598637 C54.5,87.6759069 53.652427,88.5 52.6053133,88.5 L44.3946875,88.5 Z M128,125 C125.238517,125 123,122.761236 123,119.999535 C123,117.237834 125.238517,115 128,115 C130.761483,115 133,117.238764 133,119.999535 C133,122.761236 130.761483,125 128,125 Z M152.730002,138.561634 C153.983828,138.561634 155,139.555059 155,140.780817 C155,142.006575 153.983828,143 152.730002,143 L90.2699981,143 C89.0161724,143 88,142.006575 88,140.780817 C88,139.555059 89.0161724,138.561634 90.2699981,138.561634 L115.644261,138.561634 C109.612786,134.702766 105.62185,128.074592 105.62185,120.556252 C105.62185,108.66987 115.588717,99 127.840151,99 C140.091585,99 150.059362,108.67076 150.059362,120.556252 C150.059362,128.074592 146.067517,134.702766 140.036041,138.561634 L152.730002,138.561634 Z M111.978391,120.557143 C111.978391,129.016387 119.09433,135.899148 127.840151,135.899148 C136.586883,135.899148 143.702821,129.017277 143.702821,120.557143 C143.702821,112.097008 136.586883,105.215137 127.840151,105.215137 C119.09433,105.215137 111.978391,112.097008 111.978391,120.557143 Z M81.8368056,139 C83.0321181,139 84,139.895307 84,141 C84,142.104693 83.03125,143 81.8359375,143 L77.1640625,143 C75.96875,143 75,142.104693 75,141 C75,139.895307 75.96875,139 77.1640625,139 L81.8368056,139 Z M5.50867247,111.730587 C5.61904307,111.863775 5.80504512,112.037813 6.06328008,112.233675 C6.83019694,112.815356 8.02465155,113.434345 9.50276562,113.995303 C12.8000543,115.246655 16.9880492,116.03605 20.9091078,116.06444 L20.872907,121.064308 C10.983938,120.992709 0.508695652,117.017258 0.508695652,112 L3.00869565,112 L0.508695661,112.000215 L0.500000009,11.0002152 L0.508695658,11.0002145 C0.508695652,4.83936809 13.98232,1.5 31.2521739,1.5 C48.5220279,1.5 61.9956522,4.83936809 61.9956522,11 L61.9956522,45 L56.9956522,45 L56.9956522,16.6331982 C51.5553753,19.1675367 42.1611539,20.5 31.2521739,20.5 C20.3377036,20.5 10.939517,19.1661952 5.50048467,16.6293708 L5.50867247,111.730587 Z M5.50869564,111.999785 L5.50867247,111.730587 C5.48877601,111.706577 5.47133736,111.683895 5.45637642,111.662652 C5.46646146,111.676972 5.50866663,111.791156 5.50869564,111.999785 Z M6.4921282,11.567749 C7.67399862,12.2602908 9.52114384,12.937932 11.8824347,13.5231657 C16.9326029,14.7748238 23.8502747,15.5 31.2521739,15.5 C38.6540731,15.5 45.571745,14.7748238 50.6219132,13.5231657 C52.983204,12.937932 54.8303492,12.2602908 56.0122196,11.567749 C56.3636925,11.3617961 56.6329514,11.1678044 56.8180697,11 C56.6329514,10.8321956 56.3636925,10.6382039 56.0122196,10.432251 C54.8303492,9.73970921 52.983204,9.06206802 50.6219132,8.47683431 C45.571745,7.22517624 38.6540731,6.5 31.2521739,6.5 C23.8502747,6.5 16.9326029,7.22517624 11.8824347,8.47683431 C9.52114384,9.06206802 7.67399862,9.73970921 6.4921282,10.432251 C6.14065534,10.6382039 5.87139645,10.8321956 5.68627814,11 C5.87139645,11.1678044 6.14065534,11.3617961 6.4921282,11.567749 Z M122,50 L121.995168,16.6293708 C116.556135,19.1661952 107.157949,20.5 96.2434783,20.5 C85.3344982,20.5 75.9402769,19.1675367 70.5,16.6331982 L70.5,45 L65.5,45 L65.5,11 C65.5,4.83936809 78.9736243,1.5 96.2434783,1.5 C113.513332,1.5 126.986957,4.83936809 126.986957,11.0002145 L126.995652,11.0002152 L127,55.5 L122,50 Z M121.003524,11.567749 C121.354997,11.3617961 121.624256,11.1678044 121.809374,11 C121.624256,10.8321956 121.354997,10.6382039 121.003524,10.432251 C119.821654,9.73970921 117.974508,9.06206802 115.613218,8.47683431 C110.563049,7.22517624 103.645377,6.5 96.2434783,6.5 C88.8415791,6.5 81.9239072,7.22517624 76.873739,8.47683431 C74.5124482,9.06206802 72.665303,9.73970921 71.4834326,10.432251 C71.1319597,10.6382039 70.8627008,10.8321956 70.6775825,11 C70.8627008,11.1678044 71.1319597,11.3617961 71.4834326,11.567749 C72.665303,12.2602908 74.5124482,12.937932 76.873739,13.5231657 C81.9239072,14.7748238 88.8415791,15.5 96.2434783,15.5 C103.645377,15.5 110.563049,14.7748238 115.613218,13.5231657 C117.974508,12.937932 119.821654,12.2602908 121.003524,11.567749 Z" id="Path-2" fill="#000000" fill-rule="nonzero"></path>
    </g>
</svg>