<?xml version="1.0" encoding="UTF-8"?>
<svg width="155px" height="143px" viewBox="0 0 155 143" version="1.1" xmlns="http://www.w3.org/2000/svg" xmlns:xlink="http://www.w3.org/1999/xlink">
    <!-- Generator: Sketch 54.1 (76490) - https://sketchapp.com -->
    <title>farm_small</title>
    <desc>Created with Sketch.</desc>
    <g id="farm_small" stroke="none" stroke-width="1" fill="none" fill-rule="evenodd">
        <path d="M124.793388,134.91954 C125.694215,134.91954 126.144628,134.468811 126.144628,133.567354 L121.640496,130.412251 L96.6706259,130.409582 L96.6706259,105.531026 L120.891125,105.531026 L121.805293,105.531026 L121.640496,130.412251 L126.144628,133.567354 L126.287141,105.531026 L126.287141,105.476754 L126.314108,105.476754 L126.287141,105.531026 L131.100679,105.531026 C131.791024,105.531026 132.22159,104.782079 131.880912,104.186902 L129.254366,99.4969435 L121.50057,85.4523937 C118.067722,79.2283615 112.581817,74.2769952 106.046912,71.5163868 C102.120575,69.8475393 97.961427,69 93.721379,69 L61.6841622,69 C61.6122513,69 61.5412392,69.0180905 61.4693283,69.0271357 C57.382091,69.0271357 53.3029437,69.8122629 49.4934623,71.3725674 L49.1168288,71.525432 C42.4390004,74.2679499 36.8362403,79.2645425 33.3404703,85.6061628 L25.8284751,99.216541 L25.6765633,99.496039 C25.6765633,99.5050842 25.6675744,99.5050842 25.6675744,99.5141295 L23.1129388,104.195948 C22.7812496,104.791125 23.2208051,105.531026 23.9021612,105.531026 L28.70671,105.531026 L28.6887323,105.485799 C28.6977211,105.485799 28.6977211,105.485799 28.70671,105.485799 L28.70671,105.531026 L28.70671,132.664561 C28.70671,133.909187 29.7107663,134.91954 30.9476342,134.91954 L93.5514895,134.91954 L94.4297017,134.91954 C114.67216,134.91954 124.793388,134.91954 124.793388,134.91954 Z M33.1876596,102.608507 L33.8150825,101.472425 L40.3949323,89.5471755 C43.0035011,84.8210357 47.1806271,81.0862546 52.1649532,79.0483612 L52.5325979,78.894592 C58.3322141,76.5138839 64.9740871,76.5500649 70.7476356,78.9940897 C75.6151065,81.0600234 79.7113327,84.7486737 82.2749572,89.3943109 L88.9348079,101.472425 L90.0287529,103.438861 C90.0647084,103.502177 90.1096527,103.565494 90.1456082,103.628811 C90.1815636,103.692128 90.2175191,103.746399 90.2624634,103.808811 C90.3972964,103.997857 90.5402194,104.178762 90.702019,104.340671 C90.8629197,104.503486 91.042697,104.647305 91.2305643,104.782984 C91.2844975,104.819165 91.3294418,104.846301 91.3743861,104.882482 C91.5532646,104.991025 91.7330419,105.089618 91.9209092,105.18007 C91.9478758,105.189115 91.9748424,105.207206 92.001809,105.216251 C92.064731,105.243387 92.1276531,105.270523 92.1896763,105.288613 L92.1896763,130.410486 L75.9926389,130.410486 L75.9926389,108.296675 C75.9926389,107.051145 74.9894814,106.041695 73.7517146,106.041695 L49.0008725,106.041695 C47.7631056,106.041695 46.7599482,107.051145 46.7599482,108.296675 L46.7599482,130.409582 L33.1876596,130.409582 L33.1876596,102.608507 Z M51,110.4 L59,110.4 L59,130.4 L51,130.4 L51,110.4 Z M63.49,110.4 L71.49,110.4 L71.49,130.4 L63.49,130.4 L63.49,110.4 Z" id="Shape" fill="#000000" fill-rule="nonzero"></path>
    </g>
</svg>