<?xml version="1.0" encoding="UTF-8"?>
<svg width="155px" height="113px" viewBox="0 0 155 113" version="1.1" xmlns="http://www.w3.org/2000/svg" xmlns:xlink="http://www.w3.org/1999/xlink">
    <!-- Generator: Sketch 54.1 (76490) - https://sketchapp.com -->
    <title>farm</title>
    <desc>Created with Sketch.</desc>
    <g id="farm" stroke="none" stroke-width="1" fill="none" fill-rule="evenodd">
        <path d="M42.0525781,44 C40.9182049,44 39.9989715,43.1125151 40.0000009,42.0183148 L40.0000009,31.9816852 C40.0000009,30.8874849 40.9192343,30 42.0525781,30 L50.9474227,30 C52.0807666,30 53,30.8874849 53,31.9816852 L53,42.0183148 C53,43.1125151 52.0817959,44 50.9474227,44 L42.0525781,44 Z M82.293522,89 L81.3186259,89 L11.8226032,89 C10.4495663,89 9.33497164,87.8792002 9.33497164,86.4985194 L9.33497164,47.5243876 L9.33497164,47.4742175 C9.32499317,47.4742175 9.32499317,47.4742175 9.31501471,47.4742175 L9.33497164,47.5243876 L4.00148168,47.5243876 C3.24511397,47.5243876 2.757167,46.7036049 3.12537238,46.0433665 L5.96125236,40.8497589 C5.96125236,40.8397249 5.97123082,40.8397249 5.97123082,40.8296909 L6.13986689,40.5196398 L14.4788707,25.4214532 C18.3594961,18.3866034 24.5790738,12.8438119 31.992076,9.80149776 L32.4101737,9.63192286 C36.6390475,7.9010548 41.1672753,7.03010205 45.7044837,7.03010205 C45.7843114,7.02006804 45.8631413,7 45.942969,7 L81.5072189,7 C86.2140612,7 90.8310973,7.94018746 95.1896912,9.79146374 C102.444036,12.853846 108.533893,18.3464673 112.34467,25.2508749 L120.952094,40.8306943 L123.867802,46.0333325 C124.245986,46.6935709 123.768017,47.5243876 123.001671,47.5243876 L117.658203,47.5243876 L117.688138,47.4641835 L117.658203,47.4641835 L117.658203,47.5243876 L117.658203,53.4685397 C115.937915,53.7986589 114.275503,54.2883189 112.68294,54.9194587 L112.68294,47.5243876 L111.66813,47.5243876 L84.7811535,47.5243876 L84.7811535,83.9970387 L95.275506,83.9970387 C95.4760732,85.715866 95.8273152,87.3905436 96.3282341,89 L82.293522,89 Z M14.3092368,44.2823964 L14.3092368,83.9970387 L29.3757223,83.9970387 L29.3757223,59.4668755 C29.3757223,58.0851913 30.4893191,56.9653949 31.8633538,56.9653949 L59.3390593,56.9653949 C60.7130941,56.9653949 61.8266909,58.0851913 61.8266909,59.4668755 L61.8266909,83.9980421 L79.8068883,83.9980421 L79.8068883,47.2554759 C79.7380369,47.2354078 79.6681877,47.2053058 79.5983384,47.1752037 C79.568403,47.1651697 79.5384676,47.1451017 79.5085322,47.1350677 C79.2999823,47.0347275 79.100413,46.9253567 78.9018415,46.8049485 C78.8519492,46.7648124 78.8020568,46.7347104 78.742186,46.6945743 C78.5336361,46.544064 78.3340668,46.3845231 78.1554523,46.2039108 C77.9758399,46.0243019 77.8171823,45.8236215 77.6675053,45.6139106 C77.617613,45.5446759 77.5776991,45.4844717 77.5377852,45.4142336 C77.4978714,45.3439955 77.447979,45.2737574 77.4080652,45.2035192 L76.1936859,43.0221238 L68.8006406,29.6236999 C65.9547822,24.4702283 61.4075953,20.3783559 56.0042561,18.0865862 C49.5950875,15.3753946 42.2219991,15.3352586 35.783893,17.976212 L35.3757738,18.1467903 C29.8427145,20.4074545 25.2057215,24.5505005 22.3099707,29.7932748 L15.0057337,43.0221238 L14.3092368,44.2823964 Z M56.85043,80.4429896 L56.85043,61.9693595 L38.5409431,61.9693595 L56.85043,80.4429896 Z M53.3469906,83.9950319 L34.3509853,64.8280512 L34.3509853,83.9950319 L53.3469906,83.9950319 Z M123.5,86 C120.462369,86 118,83.5373593 118,80.4994882 C118,77.4616172 120.462369,75 123.5,75 C126.537631,75 129,77.4626407 129,80.4994882 C129,83.5373593 126.537631,86 123.5,86 Z M150.492838,101.057274 C151.87766,101.057274 153,102.163588 153,103.528637 C153,104.893686 151.87766,106 150.492838,106 L81.5071621,106 C80.1223397,106 79,104.893686 79,103.528637 C79,102.163588 80.1223397,101.057274 81.5071621,101.057274 L109.532467,101.057274 C102.870838,96.759898 98.4629393,89.3785227 98.4629393,81.0058265 C98.4629393,67.7687188 109.471121,57 123.002555,57 C136.533989,57 147.543176,67.7697101 147.543176,81.0058265 C147.543176,89.3785227 143.134272,96.759898 136.472643,101.057274 L150.492838,101.057274 Z M105.483597,81.0068179 C105.483597,90.4273402 113.342991,98.0922333 123.002555,98.0922333 C132.663124,98.0922333 140.522519,90.4283315 140.522519,81.0068179 C140.522519,71.5853042 132.663124,63.9214024 123.002555,63.9214024 C113.342991,63.9214024 105.483597,71.5853042 105.483597,81.0068179 Z M71.5964506,101 C72.9245756,101 74,102.119134 74,103.5 C74,104.880866 72.9236111,106 71.5954861,106 L66.4045139,106 C65.0763889,106 64,104.880866 64,103.5 C64,102.119134 65.0763889,101 66.4045139,101 L71.5964506,101 Z" id="Path-2" fill="#000000" fill-rule="nonzero"></path>
    </g>
</svg>