<?xml version="1.0" encoding="UTF-8"?>
<svg width="155px" height="143px" viewBox="0 0 155 143" version="1.1" xmlns="http://www.w3.org/2000/svg" xmlns:xlink="http://www.w3.org/1999/xlink">
    <!-- Generator: Sketch 54.1 (76490) - https://sketchapp.com -->
    <title>farm_medium</title>
    <desc>Created with Sketch.</desc>
    <g id="farm_medium" stroke="none" stroke-width="1" fill="none" fill-rule="evenodd">
        <path d="M44.8946875,87 C43.8475738,87 42.9990506,86.1759069 43.0000008,85.1598637 L43.0000008,75.8401363 C43.0000008,74.8240931 43.848524,74 44.8946875,74 L53.1053133,74 C54.1514768,74 55,74.8240931 55,75.8401363 L55,85.1598637 C55,86.1759069 54.152427,87 53.1053133,87 L44.8946875,87 Z M94.0725415,128 L81.4297017,128 L80.5514895,128 L17.9476342,128 C16.7107663,128 15.70671,126.988547 15.70671,125.742566 L15.70671,90.5707888 L15.70671,90.5255133 C15.6977211,90.5255133 15.6977211,90.5255133 15.6887323,90.5255133 L15.70671,90.5707888 L10.9021612,90.5707888 C10.2208051,90.5707888 9.78124961,89.8300825 10.1129388,89.2342576 L12.6675744,84.5473434 C12.6675744,84.5382883 12.6765633,84.5382883 12.6765633,84.5292333 L12.8284751,84.249431 L20.3404703,70.6242383 C23.8362403,64.2757152 29.4390004,59.273684 36.1168288,56.5281809 L36.4934623,56.3751499 C40.3029437,54.813147 44.382091,54.0271653 48.4693283,54.0271653 C48.5412392,54.0181102 48.6122513,54 48.6841622,54 L80.721379,54 C84.961427,54 89.1205753,54.8484619 93.0469119,56.5191258 C99.5818174,59.282739 105.067722,64.2394949 108.50057,70.4703018 L116.254366,84.5301388 L118.880912,89.2252025 C119.22159,89.8210274 118.791024,90.5707888 118.100679,90.5707888 L113.287141,90.5707888 L113.314108,90.5164582 L113.287141,90.5164582 L113.287141,90.5707888 L113.287141,95.9350236 C111.737461,96.2329361 110.239916,96.6748244 108.805293,97.2443895 L108.805293,90.5707888 L107.891125,90.5707888 L83.6706259,90.5707888 L83.6706259,123.485133 L93.1242161,123.485133 C93.3048923,125.036269 93.6213004,126.547564 94.0725415,128 Z M20.1876596,87.6450894 L20.1876596,123.485133 L33.7599482,123.485133 L33.7599482,101.348156 C33.7599482,100.10127 34.7631056,99.0907222 36.0008725,99.0907222 L60.7517146,99.0907222 C61.9894814,99.0907222 62.9926389,100.10127 62.9926389,101.348156 L62.9926389,123.486038 L79.1896763,123.486038 L79.1896763,90.3281124 C79.1276531,90.3100022 79.064731,90.2828369 79.001809,90.2556717 C78.9748424,90.2466166 78.9478758,90.2285064 78.9209092,90.2194513 C78.7330419,90.1289004 78.5532646,90.0301999 78.3743861,89.9215389 C78.3294418,89.8853185 78.2844975,89.8581533 78.2305643,89.8219329 C78.042697,89.6861066 77.8629197,89.5421306 77.702019,89.379139 C77.5402194,89.2170529 77.3972964,89.0359512 77.2624634,88.8466998 C77.2175191,88.7842197 77.1815636,88.7298891 77.1456082,88.6665035 C77.1096527,88.6031179 77.0647084,88.5397323 77.0287529,88.4763466 L75.9348079,86.5077702 L69.2749572,74.4165096 C66.7113327,69.7658158 62.6151065,66.0731504 57.7476356,64.0049681 C51.9740871,61.558283 45.3322141,61.5220626 39.5325979,63.9053621 L39.1649532,64.0592986 C34.1806271,66.0994102 30.0035011,69.8382565 27.3949323,74.5695406 L20.8150825,86.5077702 L20.1876596,87.6450894 Z M118,125 C115.238517,125 113,122.761236 113,119.999535 C113,117.237834 115.238517,115 118,115 C120.761483,115 123,117.238764 123,119.999535 C123,122.761236 120.761483,125 118,125 Z M142.730002,138.561634 C143.983828,138.561634 145,139.555059 145,140.780817 C145,142.006575 143.983828,143 142.730002,143 L80.2699981,143 C79.0161724,143 78,142.006575 78,140.780817 C78,139.555059 79.0161724,138.561634 80.2699981,138.561634 L105.644261,138.561634 C99.6127857,134.702766 95.6218505,128.074592 95.6218505,120.556252 C95.6218505,108.66987 105.588717,99 117.840151,99 C130.091585,99 140.059362,108.67076 140.059362,120.556252 C140.059362,128.074592 136.067517,134.702766 130.036041,138.561634 L142.730002,138.561634 Z M101.978391,120.557143 C101.978391,129.016387 109.09433,135.899148 117.840151,135.899148 C126.586883,135.899148 133.702821,129.017277 133.702821,120.557143 C133.702821,112.097008 126.586883,105.215137 117.840151,105.215137 C109.09433,105.215137 101.978391,112.097008 101.978391,120.557143 Z M71.8368056,139 C73.0321181,139 74,139.895307 74,141 C74,142.104693 73.03125,143 71.8359375,143 L67.1640625,143 C65.96875,143 65,142.104693 65,141 C65,139.895307 65.96875,139 67.1640625,139 L71.8368056,139 Z M38,103.5 L38,123.5 L46,123.5 L46,103.5 L38,103.5 Z M50.49,103.5 L50.49,123.5 L58.49,123.5 L58.49,103.5 L50.49,103.5 Z" id="Path-2" fill="#000000" fill-rule="nonzero"></path>
    </g>
</svg>