<?xml version="1.0" encoding="UTF-8"?>
<svg width="155px" height="143px" viewBox="0 0 155 143" version="1.1" xmlns="http://www.w3.org/2000/svg" xmlns:xlink="http://www.w3.org/1999/xlink">
    <!-- Generator: Sketch 55.2 (78181) - https://sketchapp.com -->
    <title>farm_medium</title>
    <desc>Created with Sketch.</desc>
    <g id="farm_medium" stroke="none" stroke-width="1" fill="none" fill-rule="evenodd">
        <path d="M110.350063,125 L28,125 L28,87 C30.6666667,77.3333333 35.5,69.1666667 42.5,62.5 C53,52.5 92.5,55.5 104,61 C111.666667,64.6666667 117.333333,73.3333333 121,87 L121,105.24691 C123.009582,104.442503 125.203115,104 127.5,104 C137.164983,104 145,111.835017 145,121.5 C145,131.164983 137.164983,139 127.5,139 C119.033647,139 111.97151,132.987841 110.350063,125 Z" id="background" fill="#FFFFFF"></path>
        <path d="M104.072541,128 L91.4297017,128 L90.5514895,128 L27.9476342,128 C26.7107663,128 25.70671,126.988547 25.70671,125.742566 L25.70671,90.5707888 L25.70671,90.5255133 C25.6977211,90.5255133 25.6977211,90.5255133 25.6887323,90.5255133 L25.70671,90.5707888 L20.9021612,90.5707888 C20.2208051,90.5707888 19.7812496,89.8300825 20.1129388,89.2342576 L22.6675744,84.5473434 C22.6675744,84.5382883 22.6765633,84.5382883 22.6765633,84.5292333 L22.8284751,84.249431 L30.3404703,70.6242383 C33.8362403,64.2757152 39.4390004,59.273684 46.1168288,56.5281809 L46.4934623,56.3751499 C50.3029437,54.813147 54.382091,54.0271653 58.4693283,54.0271653 C58.5412392,54.0181102 58.6122513,54 58.6841622,54 L90.721379,54 C94.961427,54 99.1205753,54.8484619 103.046912,56.5191258 C109.581817,59.282739 115.067722,64.2394949 118.50057,70.4703018 L126.254366,84.5301388 L128.880912,89.2252025 C129.22159,89.8210274 128.791024,90.5707888 128.100679,90.5707888 L123.287141,90.5707888 L123.314108,90.5164582 L123.287141,90.5164582 L123.287141,90.5707888 L123.287141,95.9350236 C121.737461,96.2329361 120.239916,96.6748244 118.805293,97.2443895 L118.805293,90.5707888 L117.891125,90.5707888 L93.6706259,90.5707888 L93.6706259,123.485133 L103.124216,123.485133 C103.304892,125.036269 103.6213,126.547564 104.072541,128 Z M30.1876596,87.6450894 L30.1876596,123.485133 L43.7599482,123.485133 L43.7599482,101.348156 C43.7599482,100.10127 44.7631056,99.0907222 46.0008725,99.0907222 L70.7517146,99.0907222 C71.9894814,99.0907222 72.9926389,100.10127 72.9926389,101.348156 L72.9926389,123.486038 L89.1896763,123.486038 L89.1896763,90.3281124 C89.1276531,90.3100022 89.064731,90.2828369 89.001809,90.2556717 C88.9748424,90.2466166 88.9478758,90.2285064 88.9209092,90.2194513 C88.7330419,90.1289004 88.5532646,90.0301999 88.3743861,89.9215389 C88.3294418,89.8853185 88.2844975,89.8581533 88.2305643,89.8219329 C88.042697,89.6861066 87.8629197,89.5421306 87.702019,89.379139 C87.5402194,89.2170529 87.3972964,89.0359512 87.2624634,88.8466998 C87.2175191,88.7842197 87.1815636,88.7298891 87.1456082,88.6665035 C87.1096527,88.6031179 87.0647084,88.5397323 87.0287529,88.4763466 L85.9348079,86.5077702 L79.2749572,74.4165096 C76.7113327,69.7658158 72.6151065,66.0731504 67.7476356,64.0049681 C61.9740871,61.558283 55.3322141,61.5220626 49.5325979,63.9053621 L49.1649532,64.0592986 C44.1806271,66.0994102 40.0035011,69.8382565 37.3949323,74.5695406 L30.8150825,86.5077702 L30.1876596,87.6450894 Z M48,103.5 L48,123.5 L56,123.5 L56,103.5 L48,103.5 Z M60.49,103.5 L60.49,123.5 L68.49,123.5 L68.49,103.5 L60.49,103.5 Z M54.8946875,87 C53.8475738,87 52.9990506,86.1759069 53,85.1598637 L53,75.8401363 C53,74.8240931 53.848524,74 54.8946875,74 L63.1053133,74 C64.1514768,74 65,74.8240931 65,75.8401363 L65,85.1598637 C65,86.1759069 64.152427,87 63.1053133,87 L54.8946875,87 Z M152.730002,138.561634 C153.983828,138.561634 155,139.555059 155,140.780817 C155,142.006575 153.983828,143 152.730002,143 L90.2699981,143 C89.0161724,143 88,142.006575 88,140.780817 C88,139.555059 89.0161724,138.561634 90.2699981,138.561634 L115.644261,138.561634 C109.612786,134.702766 105.62185,128.074592 105.62185,120.556252 C105.62185,108.66987 115.588717,99 127.840151,99 C140.091585,99 150.059362,108.67076 150.059362,120.556252 C150.059362,128.074592 146.067517,134.702766 140.036041,138.561634 L152.730002,138.561634 Z M111.978391,120.557143 C111.978391,129.016387 119.09433,135.899148 127.840151,135.899148 C136.586883,135.899148 143.702821,129.017277 143.702821,120.557143 C143.702821,112.097008 136.586883,105.215137 127.840151,105.215137 C119.09433,105.215137 111.978391,112.097008 111.978391,120.557143 Z M128,125 C125.238517,125 123,122.761236 123,119.999535 C123,117.237834 125.238517,115 128,115 C130.761483,115 133,117.238764 133,119.999535 C133,122.761236 130.761483,125 128,125 Z M81.8368056,139 C83.0321181,139 84,139.895307 84,141 C84,142.104693 83.03125,143 81.8359375,143 L77.1640625,143 C75.96875,143 75,142.104693 75,141 C75,139.895307 75.96875,139 77.1640625,139 L81.8368056,139 Z" id="Path-2" fill="#000000" fill-rule="nonzero"></path>
    </g>
</svg>