<?xml version="1.0" encoding="UTF-8"?>
<svg width="14px" height="16px" viewBox="0 0 14 16" version="1.1" xmlns="http://www.w3.org/2000/svg" xmlns:xlink="http://www.w3.org/1999/xlink">
    <!-- Generator: Sketch 55.1 (78136) - https://sketchapp.com -->
    <title>grass</title>
    <desc>Created with Sketch.</desc>
    <g id="grass" stroke="none" stroke-width="1" fill="none" fill-rule="evenodd">
        <path d="M7.84,13.65 C7.84,14.0365993 7.52659932,14.35 7.14,14.35 C6.75340068,14.35 6.44,14.0365993 6.44,13.65 L6.44,1.225 C6.44,0.838400675 6.75340068,0.525 7.14,0.525 C7.52659932,0.525 7.84,0.838400675 7.84,1.225 L7.84,13.65 Z M9.76771633,13.5101307 C9.65166436,13.8789002 9.25863886,14.0837683 8.88986932,13.9677163 C8.52109977,13.8516644 8.3162317,13.4586389 8.43228367,13.0898693 C9.18813658,10.6880529 9.65450794,8.95436614 9.82936267,7.90675821 C10.0346189,6.67700567 10.7835531,5.30096387 12.0601551,3.75439087 C12.3062582,3.45624277 12.747461,3.41405199 13.0456091,3.66015512 C13.3437572,3.90625824 13.385948,4.34746104 13.1398449,4.64560913 C12.0060273,6.01920224 11.368169,7.19116044 11.21026,8.13724179 C11.0219494,9.26546775 10.5417799,11.0504477 9.76771633,13.5101307 Z M5.59075624,13.1866165 C5.65337622,13.5681106 5.39487765,13.9281363 5.01338351,13.9907562 C4.63188938,14.0533762 4.27186375,13.7948776 4.20924376,13.4133835 C3.80261018,10.9360861 3.28292518,9.12384906 2.66724191,7.99263365 L0.785166432,4.53463366 C0.600353367,4.19507045 0.725803141,3.7699795 1.06536634,3.58516643 C1.40492955,3.40035337 1.8300205,3.52580314 2.01483357,3.86536634 L3.89690904,7.32336635 C4.60198048,8.6188176 5.16091184,10.5679139 5.59075624,13.1866165 Z" id="Line-Copy-3" fill="#979797" fill-rule="nonzero"></path>
    </g>
</svg>