<?xml version="1.0" encoding="UTF-8"?>
<svg width="10px" height="28px" viewBox="0 0 10 28" version="1.1" xmlns="http://www.w3.org/2000/svg" xmlns:xlink="http://www.w3.org/1999/xlink">
    <!-- Generator: Sketch 55.1 (78136) - https://sketchapp.com -->
    <title>wheat</title>
    <desc>Created with Sketch.</desc>
    <g id="wheat" stroke="none" stroke-width="1" fill="none" fill-rule="evenodd">
        <path d="M4.72027972,8.26701847 C4.27272727,7.73509235 3.46153846,6.5530343 3.46153846,5.223219 C3.46153846,4.0116095 4.13286713,2.94775726 4.58041958,2.35672823 L4.94405594,0.110817942 C4.94405594,-0.036939314 5.13986014,-0.036939314 5.16783217,0.110817942 L5.47552448,2.41583113 C5.92307692,3.00686016 6.53846154,4.04116095 6.53846154,5.223219 C6.53846154,6.5530343 5.72727273,7.73509235 5.27972028,8.26701847 C5.13986014,8.44432718 4.86013986,8.44432718 4.72027972,8.26701847 Z M5,24 C5.41420118,24 5.76923077,24.358209 5.76923077,24.7761194 L5.76923077,27.2238806 C5.76923077,27.6716418 5.44378698,28 5,28 C4.55621302,28 4.23076923,27.641791 4.23076923,27.2238806 L4.23076923,24.7761194 C4.23076923,24.3283582 4.58579882,24 5,24 Z M0.904295684,7.85709594 L0.0111600933,5.8005896 C-0.0446608811,5.6493759 0.122802042,5.52840494 0.206533504,5.6493759 L1.60205786,7.31272662 C2.29982004,7.5244258 3.38832904,8.06879512 4.03027025,9.09704829 C4.72803243,10.2462724 4.64430097,11.7281667 4.56056951,12.4539925 C4.53265902,12.6959344 4.30937512,12.8471481 4.08609122,12.7866626 C3.44415002,12.5749634 2.16026761,12.0608368 1.46250543,10.9116127 C0.848474709,9.91360228 0.848474709,8.64340719 0.904295684,7.85709594 Z M5.96972975,9.10348845 C6.61167096,8.04683348 7.70017996,7.53360106 8.39794214,7.32227007 L9.7934665,5.63162211 C9.87719796,5.54105168 10.0446609,5.66181225 9.98883991,5.78257282 L9.09570432,7.86569263 C9.17943578,8.65063632 9.15152529,9.88843215 8.53749457,10.914897 C7.83973239,12.0923125 6.55584998,12.6055449 5.91390878,12.7866858 C5.69062488,12.8470661 5.46734098,12.6961154 5.43943049,12.4545942 C5.35569903,11.7300308 5.27196757,10.2507139 5.96972975,9.10348845 Z M0.904295684,13.0570959 L0.0111600933,11.0005896 C-0.0446608811,10.8493759 0.122802042,10.7284049 0.206533504,10.8493759 L1.60205786,12.5127266 C2.29982004,12.7244258 3.38832904,13.2687951 4.03027025,14.2970483 C4.72803243,15.4462724 4.64430097,16.9281667 4.56056951,17.6539925 C4.53265902,17.8959344 4.30937512,18.0471481 4.08609122,17.9866626 C3.44415002,17.7749634 2.16026761,17.2608368 1.46250543,16.1116127 C0.848474709,15.1136023 0.848474709,13.8434072 0.904295684,13.0570959 Z M9.7934665,10.8501027 C9.87719796,10.7291441 10.0446609,10.8501027 9.98883991,10.9710614 L9.09570432,13.0575984 C9.17943578,13.8438297 9.15152529,15.083656 8.53749457,16.1118046 C7.83973239,17.2911516 6.55584998,17.805226 5.91390878,17.986664 C5.69062488,18.0471433 5.46734098,17.895945 5.43943049,17.6540276 C5.35569903,16.9282756 5.27196757,15.446532 5.96972975,14.2974247 C6.61167096,13.269276 7.70017996,12.7552017 8.39794214,12.5132844 L9.7934665,10.8501027 Z M4.56056951,22.8268478 C4.53265902,23.0678316 4.30937512,23.2485694 4.08609122,23.1883234 C3.44415002,22.9774627 2.16026761,22.4653722 1.46250543,21.3206995 C0.848474709,20.3266416 0.848474709,19.061477 0.904295684,18.2782799 L0.0111600933,16.1997952 C-0.0446608811,16.0491804 0.122802042,15.9286885 0.206533504,16.0491804 L1.60205786,17.7059435 C2.29982004,17.9168043 3.38832904,18.4590177 4.03027025,19.4831986 C4.72803243,20.6278713 4.64430097,22.1038966 4.56056951,22.8268478 Z M9.7934665,16.0501027 C9.87719796,15.9291441 10.0446609,16.0501027 9.98883991,16.1710614 L9.09570432,18.2575984 C9.17943578,19.0438297 9.15152529,20.283656 8.53749457,21.3118046 C7.83973239,22.4911516 6.55584998,23.005226 5.91390878,23.186664 C5.69062488,23.2471433 5.46734098,23.095945 5.43943049,22.8540276 C5.35569903,22.1282756 5.27196757,20.646532 5.96972975,19.4974247 C6.61167096,18.469276 7.70017996,17.9552017 8.39794214,17.7132844 L9.7934665,16.0501027 Z" id="Path-2" fill="#000000" fill-rule="nonzero"></path>
    </g>
</svg>