<?xml version="1.0" encoding="UTF-8"?>
<svg width="40px" height="27px" viewBox="0 0 40 27" version="1.1" xmlns="http://www.w3.org/2000/svg" xmlns:xlink="http://www.w3.org/1999/xlink">
    <!-- Generator: Sketch 55.1 (78136) - https://sketchapp.com -->
    <title>cow</title>
    <desc>Created with Sketch.</desc>
    <g id="cow" stroke="none" stroke-width="1" fill="none" fill-rule="evenodd">
        <path d="M39.7700147,9.37375415 C40.0442907,9.68770764 40.0900033,10.1362126 39.8157274,10.5398671 L38.8557615,11.9750831 C38.5814855,12.3787375 38.0786463,12.513289 37.6672323,12.2890365 C36.8901171,11.8853821 35.5187373,11.3023256 34.2844954,11.3023256 C32.4102764,11.3023256 31.0846092,13.7242525 31.0846092,15.3388704 C31.0846092,16.9983389 29.89608,18.3887043 28.3418496,18.7923588 L28.3418496,25.6096346 C28.3418496,26.372093 27.747585,26.9551495 26.9704698,26.9551495 C26.1933545,26.9551495 25.5990899,26.372093 25.5990899,25.6096346 L25.5990899,18.8820598 L23.7705835,18.8820598 L23.7705835,25.6096346 C23.7705835,26.372093 23.1763189,26.9551495 22.3992037,26.9551495 C21.6220885,26.9551495 21.0278239,26.372093 21.0278239,25.6096346 L21.0278239,18.8820598 L11.8852918,18.8820598 C11.8852918,19.8687708 11.0624639,20.6760797 10.0567853,20.6760797 L5.48551927,20.6760797 L5.48551927,25.6096346 C5.48551927,26.372093 4.89125468,26.9551495 4.11413945,26.9551495 C3.33702422,26.9551495 2.74275964,26.372093 2.74275964,25.6096346 L2.74275964,18.8820598 L2.74275964,7.22093023 C2.23992037,7.22093023 1.82850642,7.62458472 1.82850642,8.1179402 L1.82850642,17.9401993 C1.82850642,18.4335548 1.41709248,18.8372093 0.914253212,18.8372093 C0.411413945,18.8372093 1.42108547e-14,18.4335548 1.42108547e-14,17.9401993 L1.42108547e-14,8.0730897 C1.42108547e-14,6.59302326 1.23424184,5.3820598 2.74275964,5.3820598 C2.74275964,4.39534884 3.56558753,3.58803987 4.57126606,3.58803987 L26.0562165,3.58803987 L29.9417927,3.58803987 C29.5303787,3.09468439 29.2561028,2.46677741 29.2561028,1.79401993 L29.2561028,0.897009967 C29.2561028,0.403654485 29.6675167,-3.55271368e-15 30.170356,-3.55271368e-15 C30.6731953,-3.55271368e-15 31.0846092,0.403654485 31.0846092,0.897009967 L31.0846092,1.79401993 C31.0846092,2.28737542 31.4960232,2.6910299 31.9988624,2.6910299 L34.7416221,2.6910299 C35.2444613,2.6910299 35.6558753,2.28737542 35.6558753,1.79401993 L35.6558753,0.897009967 C35.6558753,0.403654485 36.0672892,-3.55271368e-15 36.5701285,-3.55271368e-15 C37.0729677,-3.55271368e-15 37.4843817,0.403654485 37.4843817,0.897009967 L37.4843817,1.79401993 C37.4843817,3.04983389 36.6158411,4.08139535 35.427312,4.39534884 L39.7700147,9.37375415 Z M7.3140257,25.654485 L7.3140257,21.6179402 L10.0567853,21.6179402 L10.0567853,25.654485 C10.0567853,26.4169435 9.46252074,27 8.68540551,27 C7.90829028,27 7.3140257,26.4169435 7.3140257,25.654485 Z" id="Path-3" fill="#000000" fill-rule="nonzero"></path>
    </g>
</svg>