<?xml version="1.0" encoding="UTF-8"?>
<svg width="96px" height="80px" viewBox="0 0 96 80" version="1.1" xmlns="http://www.w3.org/2000/svg" xmlns:xlink="http://www.w3.org/1999/xlink">
    <!-- Generator: Sketch 54.1 (76490) - https://sketchapp.com -->
    <title>cow</title>
    <desc>Created with Sketch.</desc>
    <g id="cow" stroke="none" stroke-width="1" fill="none" fill-rule="evenodd">
        <path d="M91.4940324,30.8305648 C92.0974395,31.5282392 92.1980074,32.5249169 91.5946002,33.4219269 L89.4826753,36.6112957 C88.8792682,37.5083056 87.7730218,37.807309 86.8679111,37.3089701 C85.1582576,36.4119601 82.141222,35.1162791 79.42589,35.1162791 C75.302608,35.1162791 72.3861403,40.4983389 72.3861403,44.0863787 C72.3861403,47.7740864 69.7713761,50.8637874 66.3520691,51.7607973 L66.3520691,66.910299 C66.3520691,68.6046512 65.044687,69.9003322 63.3350335,69.9003322 C61.62538,69.9003322 60.3179979,68.6046512 60.3179979,66.910299 L60.3179979,51.9601329 L56.2952837,51.9601329 L56.2952837,66.910299 C56.2952837,68.6046512 54.9879016,69.9003322 53.2782481,69.9003322 C51.5685946,69.9003322 50.2612125,68.6046512 50.2612125,66.910299 L50.2612125,51.9601329 L30.1476419,51.9601329 C30.1476419,54.1528239 28.3374205,55.9468439 26.1249277,55.9468439 L16.0681424,55.9468439 L16.0681424,66.910299 C16.0681424,68.6046512 14.7607603,69.9003322 13.0511068,69.9003322 C11.3414533,69.9003322 10.0340712,68.6046512 10.0340712,66.910299 L10.0340712,51.9601329 L10.0340712,26.0465116 C8.92782481,26.0465116 8.02271413,26.9435216 8.02271413,28.0398671 L8.02271413,49.8671096 C8.02271413,50.9634551 7.11760345,51.8604651 6.01135707,51.8604651 C4.90511068,51.8604651 4,50.9634551 4,49.8671096 L4,27.9401993 C4,24.6511628 6.71533204,21.9601329 10.0340712,21.9601329 C10.0340712,19.7674419 11.8442926,17.9734219 14.0567853,17.9734219 L61.3236764,17.9734219 L69.8719439,17.9734219 C68.9668332,16.8770764 68.3634261,15.4817276 68.3634261,13.986711 L68.3634261,11.9933555 C68.3634261,10.89701 69.2685368,10 70.3747832,10 C71.4810296,10 72.3861403,10.89701 72.3861403,11.9933555 L72.3861403,13.986711 C72.3861403,15.0830565 73.2912509,15.9800664 74.3974973,15.9800664 L80.4315685,15.9800664 C81.5378149,15.9800664 82.4429256,15.0830565 82.4429256,13.986711 L82.4429256,11.9933555 C82.4429256,10.89701 83.3480363,10 84.4542827,10 C85.560529,10 86.4656397,10.89701 86.4656397,11.9933555 L86.4656397,13.986711 C86.4656397,16.7774086 84.5548505,19.0697674 81.9400863,19.7674419 L91.4940324,30.8305648 Z M20.0908565,67.0099668 L20.0908565,58.0398671 L26.1249277,58.0398671 L26.1249277,67.0099668 C26.1249277,68.7043189 24.8175456,70 23.1078921,70 C21.3982386,70 20.0908565,68.7043189 20.0908565,67.0099668 Z" id="Path-3" fill="#000000" fill-rule="nonzero"></path>
    </g>
</svg>