<?xml version="1.0" encoding="UTF-8"?>
<svg width="38px" height="80px" viewBox="0 0 38 80" version="1.1" xmlns="http://www.w3.org/2000/svg" xmlns:xlink="http://www.w3.org/1999/xlink">
    <!-- Generator: Sketch 54.1 (76490) - https://sketchapp.com -->
    <title>wheat</title>
    <desc>Created with Sketch.</desc>
    <g id="wheat" stroke="none" stroke-width="1" fill="none" fill-rule="evenodd">
        <path d="M18.2727273,25.6675462 C17.1090909,24.3377309 15,21.3825858 15,18.0580475 C15,15.0290237 16.7454545,12.3693931 17.9090909,10.8918206 L18.8545455,5.27704485 C18.8545455,4.90765172 19.3636364,4.90765172 19.4363636,5.27704485 L20.2363636,11.0395778 C21.4,12.5171504 23,15.1029024 23,18.0580475 C23,21.3825858 20.8909091,24.3377309 19.7272727,25.6675462 C19.3636364,26.1108179 18.6363636,26.1108179 18.2727273,25.6675462 Z M19,65 C20.0769231,65 21,65.8955224 21,66.9402985 L21,73.0597015 C21,74.1791045 20.1538462,75 19,75 C17.8461538,75 17,74.1044776 17,73.0597015 L17,66.9402985 C17,65.8208955 17.9230769,65 19,65 Z M8.35116878,24.6427398 L6.02901624,19.501474 C5.88388171,19.1234398 6.31928531,18.8210124 6.53698711,19.1234398 L10.1653504,23.2818165 C11.9795321,23.8110645 14.8096555,25.1719878 16.4787026,27.7426207 C18.2928843,30.615681 18.0751825,34.3204167 17.8574807,36.1349811 C17.7849135,36.7398359 17.2043753,37.1178702 16.6238372,36.9666565 C14.95479,36.4374085 11.6166958,35.1520921 9.80251411,32.2790318 C8.20603424,29.7840057 8.20603424,26.608518 8.35116878,24.6427398 Z M21.5212974,27.7587211 C23.1903445,25.1170837 26.0204679,23.8340027 27.8346496,23.3056752 L31.4630129,19.0790553 C31.6807147,18.8526292 32.1161183,19.1545306 31.9709838,19.456432 L29.6488312,24.6642316 C29.866533,26.6265908 29.7939658,29.7210804 28.1974859,32.2872425 C26.3833042,35.2307813 23.04521,36.5138624 21.3761628,36.9667145 C20.7956247,37.1176652 20.2150865,36.7402884 20.1425193,36.1364856 C19.9248175,34.325077 19.7071157,30.6267846 21.5212974,27.7587211 Z M8.35116878,37.6427398 L6.02901624,32.501474 C5.88388171,32.1234398 6.31928531,31.8210124 6.53698711,32.1234398 L10.1653504,36.2818165 C11.9795321,36.8110645 14.8096555,38.1719878 16.4787026,40.7426207 C18.2928843,43.615681 18.0751825,47.3204167 17.8574807,49.1349811 C17.7849135,49.7398359 17.2043753,50.1178702 16.6238372,49.9666565 C14.95479,49.4374085 11.6166958,48.1520921 9.80251411,45.2790318 C8.20603424,42.7840057 8.20603424,39.608518 8.35116878,37.6427398 Z M31.4630129,32.1252568 C31.6807147,31.8228601 32.1161183,32.1252568 31.9709838,32.4276535 L29.6488312,37.6439959 C29.866533,39.6095742 29.7939658,42.70914 28.1974859,45.2795116 C26.3833042,48.2278791 23.04521,49.5130649 21.3761628,49.9666599 C20.7956247,50.1178582 20.2150865,49.7398624 20.1425193,49.1350691 C19.9248175,47.3206891 19.7071157,43.61633 21.5212974,40.7435617 C23.1903445,38.17319 26.0204679,36.8880042 27.8346496,36.2832109 L31.4630129,32.1252568 Z M17.8574807,62.0671196 C17.7849135,62.669579 17.2043753,63.1214235 16.6238372,62.9708086 C14.95479,62.4436567 11.6166958,61.1634306 9.80251411,58.3017488 C8.20603424,55.816604 8.20603424,52.6536925 8.35116878,50.6956997 L6.02901624,45.499488 C5.88388171,45.1229509 6.31928531,44.8217212 6.53698711,45.1229509 L10.1653504,49.2648588 C11.9795321,49.7920107 14.8096555,51.1475442 16.4787026,53.7079964 C18.2928843,56.5696782 18.0751825,60.2597416 17.8574807,62.0671196 Z M31.4630129,45.1252568 C31.6807147,44.8228601 32.1161183,45.1252568 31.9709838,45.4276535 L29.6488312,50.6439959 C29.866533,52.6095742 29.7939658,55.70914 28.1974859,58.2795116 C26.3833042,61.2278791 23.04521,62.5130649 21.3761628,62.9666599 C20.7956247,63.1178582 20.2150865,62.7398624 20.1425193,62.1350691 C19.9248175,60.3206891 19.7071157,56.61633 21.5212974,53.7435617 C23.1903445,51.17319 26.0204679,49.8880042 27.8346496,49.2832109 L31.4630129,45.1252568 Z" id="Path-2" fill="#000000" fill-rule="nonzero"></path>
    </g>
</svg>